<?xml version="1.0" encoding="UTF-8" standalone="no"?>
<!-- Generator: Adobe Illustrator 19.0.0, SVG Export Plug-In . SVG Version: 6.00 Build 0)  -->

<svg
   xmlns:dc="http://purl.org/dc/elements/1.1/"
   xmlns:cc="http://creativecommons.org/ns#"
   xmlns:rdf="http://www.w3.org/1999/02/22-rdf-syntax-ns#"
   xmlns:svg="http://www.w3.org/2000/svg"
   xmlns="http://www.w3.org/2000/svg"
   xmlns:sodipodi="http://sodipodi.sourceforge.net/DTD/sodipodi-0.dtd"
   xmlns:inkscape="http://www.inkscape.org/namespaces/inkscape"
   version="1.1"
   id="Layer_1"
   x="0px"
   y="0px"
   viewBox="0 0 512 512"
   style="enable-background:new 0 0 512 512;"
   xml:space="preserve"
   sodipodi:docname="bombillo.svg"
   inkscape:export-filename="D:\Users\Yaneth\Pictures\bombillo.png"
   inkscape:export-xdpi="852.05499"
   inkscape:export-ydpi="852.05499"
   inkscape:version="0.92.4 (5da689c313, 2019-01-14)"><metadata
   id="metadata274"><rdf:RDF><cc:Work
       rdf:about=""><dc:format>image/svg+xml</dc:format><dc:type
         rdf:resource="http://purl.org/dc/dcmitype/StillImage" /><dc:title></dc:title></cc:Work></rdf:RDF></metadata><defs
   id="defs272" /><sodipodi:namedview
   pagecolor="#ffffff"
   bordercolor="#666666"
   borderopacity="1"
   objecttolerance="10"
   gridtolerance="10"
   guidetolerance="10"
   inkscape:pageopacity="0"
   inkscape:pageshadow="2"
   inkscape:window-width="1366"
   inkscape:window-height="705"
   id="namedview270"
   showgrid="false"
   inkscape:zoom="0.4609375"
   inkscape:cx="256"
   inkscape:cy="256"
   inkscape:window-x="-8"
   inkscape:window-y="-8"
   inkscape:window-maximized="1"
   inkscape:current-layer="Layer_1" />
<path
   style="fill:#ffd15c"
   d="m 314.667,390.4 c 6.4,-21.333 19.2,-40.533 36.267,-55.467 32,-26.667 52.267,-67.2 52.267,-112 0,-83.2 -69.333,-151.467 -154.667,-147.2 C 172.8,78.933 110.933,142.933 108.8,218.666 107.733,265.6 128,307.2 161.067,334.933 179.2,349.866 192,369.066 198.4,390.4 Z"
   id="path207"
   inkscape:connector-curvature="0" />
<path
   style="fill:#FFFFFF;"
   d="M242.133,393.6h9.6l-42.667-158.933c1.067,0,2.133,0,3.2,0c5.333,0,10.667-2.133,14.933-6.4  c2.133-2.133,4.267-3.2,7.467-3.2c3.2,0,5.333,1.067,7.467,3.2c7.467,8.533,20.267,8.533,27.733,0c2.133-2.133,4.267-3.2,7.467-3.2  c2.133,0,5.333,1.067,7.467,3.2c4.267,4.267,8.533,6.4,14.933,6.4c1.067,0,2.133,0,3.2,0l-41.6,158.933h9.6l43.733-166.4  c0-2.133,0-4.267-2.133-5.333c-2.133-1.067-4.267,0-5.333,1.067c-2.133,2.133-4.267,3.2-6.4,3.2c-3.2,0-5.333-1.067-8.533-3.2  c-4.267-4.267-8.533-6.4-13.867-6.4s-9.6,2.133-13.867,6.4s-10.667,4.267-14.933,0c-3.2-4.267-8.533-6.4-13.867-6.4l0,0  c-5.333,0-10.667,2.133-13.867,6.4c-2.133,2.133-5.333,3.2-8.533,3.2c-2.133,0-5.333-1.067-6.4-3.2  c-1.067-1.067-3.2-2.133-5.333-1.067c-2.133,1.067-3.2,3.2-2.133,5.333L242.133,393.6z"
   id="path209" />
<g
   id="g215">
	<path
   style="fill:#344A5E;"
   d="M222.933,489.6C228.267,502.4,241.067,512,256,512c14.933,0,27.733-9.6,33.067-22.4H222.933z"
   id="path211" />
	<path
   style="fill:#344A5E;"
   d="M295.467,490.667H217.6c-10.667,0-19.2-8.533-19.2-19.2V390.4h116.267v81.067   C314.667,482.133,306.133,490.667,295.467,490.667z"
   id="path213" />
</g>
<g
   id="g221">
	<path
   style="fill:#415A6B;"
   d="M313.6,430.933H198.4c-6.4,0-11.733-5.333-11.733-11.733l0,0c0-6.4,5.333-11.733,11.733-11.733   h115.2c6.4,0,11.733,5.333,11.733,11.733l0,0C325.333,425.6,320,430.933,313.6,430.933z"
   id="path217" />
	<path
   style="fill:#415A6B;"
   d="M313.6,468.267H198.4c-6.4,0-11.733-5.333-11.733-11.733l0,0c0-6.4,5.333-11.733,11.733-11.733   h115.2c6.4,0,11.733,5.333,11.733,11.733l0,0C325.333,462.933,320,468.267,313.6,468.267z"
   id="path219" />
</g>
<g
   id="g237">
	<path
   style="fill:#FFD15C;"
   d="M256,0c-5.333,0-10.667,4.267-10.667,10.667v36.267c0,5.333,4.267,10.667,10.667,10.667   c6.4,0,10.667-4.267,10.667-10.667V10.667C266.667,4.267,261.333,0,256,0z"
   id="path223" />
	<path
   style="fill:#FFD15C;"
   d="M113.067,65.067c-4.267-4.267-10.667-4.267-14.933,0s-4.267,10.667,0,14.933l25.6,25.6   c4.267,4.267,10.667,4.267,14.933,0s4.267-10.667,0-14.933L113.067,65.067z"
   id="path225" />
	<path
   style="fill:#FFD15C;"
   d="M80,212.267H43.733c-5.333,0-10.667,4.267-10.667,10.667l0,0c0,5.333,4.267,10.667,10.667,10.667H80   c5.333,0,10.667-4.267,10.667-10.667l0,0C90.667,217.6,85.333,212.267,80,212.267z"
   id="path227" />
	<path
   style="fill:#FFD15C;"
   d="M123.733,340.267l-25.6,25.6c-4.267,4.267-4.267,10.667,0,14.933s10.667,4.267,14.933,0l25.6-25.6   c4.267-4.267,4.267-10.667,0-14.933S128,336,123.733,340.267z"
   id="path229" />
	<path
   style="fill:#FFD15C;"
   d="M388.267,340.267C384,336,377.6,336,373.333,340.267c-4.267,4.267-4.267,10.667,0,14.933l25.6,25.6   c4.267,4.267,10.667,4.267,14.933,0s4.267-10.667,0-14.933L388.267,340.267z"
   id="path231" />
	<path
   style="fill:#FFD15C;"
   d="M468.267,212.267H432c-5.333,0-10.667,4.267-10.667,10.667l0,0c0,5.333,4.267,10.667,10.667,10.667   h36.267c5.333,0,10.667-4.267,10.667-10.667l0,0C478.933,217.6,474.667,212.267,468.267,212.267z"
   id="path233" />
	<path
   style="fill:#FFD15C;"
   d="M398.933,65.067l-25.6,25.6c-4.267,4.267-4.267,10.667,0,14.933c4.267,4.267,10.667,4.267,14.933,0   l25.6-25.6c4.267-4.267,4.267-10.667,0-14.933S403.2,60.8,398.933,65.067z"
   id="path235" />
</g>
<g
   id="g239">
</g>
<g
   id="g241">
</g>
<g
   id="g243">
</g>
<g
   id="g245">
</g>
<g
   id="g247">
</g>
<g
   id="g249">
</g>
<g
   id="g251">
</g>
<g
   id="g253">
</g>
<g
   id="g255">
</g>
<g
   id="g257">
</g>
<g
   id="g259">
</g>
<g
   id="g261">
</g>
<g
   id="g263">
</g>
<g
   id="g265">
</g>
<g
   id="g267">
</g>
<text
   xml:space="preserve"
   style="font-style:normal;font-variant:normal;font-weight:normal;font-stretch:normal;font-size:77.69146729px;line-height:0.25;font-family:'Snap ITC';-inkscape-font-specification:'Snap ITC';letter-spacing:0px;word-spacing:0px;fill:#6c5353;fill-opacity:1;stroke:none;stroke-width:24.56411934;"
   x="200.55499"
   y="193.82805"
   id="text3752"
   transform="scale(0.80675707,1.2395305)"><tspan
     sodipodi:role="line"
     id="tspan3750"
     x="200.55499"
     y="193.82805"
     style="font-size:77.69146729px;stroke-width:24.56411934;fill:#6c5353;">Y</tspan><tspan
     sodipodi:role="line"
     x="200.55499"
     y="213.25092"
     style="font-size:77.69146729px;stroke-width:24.56411934;fill:#6c5353;"
     id="tspan3912">  <tspan
   style="fill:#6c5353;stroke-width:24.56411934;"
   id="tspan3916">A</tspan></tspan><tspan
     sodipodi:role="line"
     x="200.55499"
     y="232.67378"
     style="font-size:77.69146729px;stroke-width:24.56411934;fill:#6c5353;"
     id="tspan3910">    j</tspan><tspan
     sodipodi:role="line"
     x="200.55499"
     y="252.09665"
     style="font-size:77.69146729px;stroke-width:24.56411934;fill:#6c5353;"
     id="tspan3914">     <tspan
   style="fill:#6c5353;stroke-width:24.56411934;"
   id="tspan3918">A</tspan></tspan></text>
</svg>